<svg width="512" height="512" xmlns="http://www.w3.org/2000/svg">
 <!-- Font Awesome Free 5.15.2 by @fontawesome - https://fontawesome.com License - https://fontawesome.com/license/free (Icons: CC BY 4.0, Fonts: SIL OFL 1.1, Code: MIT License) -->

 <g>
  <title>Layer 1</title>
  <path fill="#fce625" id="svg_1" d="m127.1,146.5c1.3,7.7 8,13.5 16,13.5l16.5,0c9.8,0 17.6,-8.5 16.3,-18c-3.8,-28.2 -16.4,-54.2 -36.6,-74.7c-14.4,-14.7 -23.6,-33.3 -26.4,-53.5c-1.1,-7.9 -7.9,-13.8 -16.1,-13.8l-16.4,0c-9.8,0 -17.4,8.5 -16.3,18c3.9,31.9 18,61.3 40.6,84.4c12,12.2 19.7,27.5 22.4,44.1zm112,0c1.3,7.7 8,13.5 16,13.5l16.5,0c9.8,0 17.6,-8.5 16.3,-18c-3.8,-28.2 -16.4,-54.2 -36.6,-74.7c-14.4,-14.7 -23.6,-33.3 -26.4,-53.5c-1.1,-7.9 -7.9,-13.8 -16.1,-13.8l-16.4,0c-9.8,0 -17.5,8.5 -16.3,18c3.9,31.9 18,61.3 40.6,84.4c12,12.2 19.7,27.5 22.4,44.1zm160.9,45.5l-368,0c-17.7,0 -32,14.3 -32,32l0,192c0,53 43,96 96,96l192,0c53,0 96,-43 96,-96l16,0c61.8,0 112,-50.2 112,-112s-50.2,-112 -112,-112zm0,160l-16,0l0,-96l16,0c26.5,0 48,21.5 48,48s-21.5,48 -48,48z"/>
 </g>
</svg>